<svg version="1.1" x="0px" y="0px" width="349" height="144" xmlns="http://www.w3.org/2000/svg" xmlns:xlink="http://www.w3.org/1999/xlink" xmlns:a="http://ns.adobe.com/AdobeSVGViewerExtensions/3.0/" xml:space="preserve"><g transform="translate(20.78125 27.625) scale(0.94160414976352 0.94160414976352) rotate(0 23.900451660156 40.050872802735)"><path d="M38.655,59.146l-4.624-3.744l-3.366-9.388H20.517L15.256,61.01L7.985,72.347l1.239,1.451
	c1.754-0.884,4.773-1.091,4.742,0.364s7.156,4.882,8.884,3.692s3.931-1.647,4.167-0.11s10.199,0.781,10.83-1.861
	c0.606-2.541,3.859-2.31,4.536-1.151c0.677,1.157,1.972-2.503,1.972-2.503L38.655,59.146z" fill="#000000"></path><path d="M17.938,48.821c-0.234,0.486-0.445,0.981-0.669,1.475l-0.331,0.744l-0.273,0.76l-0.545,1.529
	c-0.154,0.517-0.287,1.037-0.432,1.559l-0.411,1.519l-0.188,0.695c-0.064,0.23-0.148,0.457-0.221,0.685
	c-0.287,0.913-0.673,1.791-1.071,2.653c-0.436,0.849-0.881,1.687-1.417,2.475c-0.248,0.403-0.544,0.781-0.813,1.169
	c-0.298,0.372-0.573,0.756-0.891,1.112c-0.604,0.731-1.271,1.414-1.955,2.073c-0.947,0.9-1.963,1.73-3.021,2.498
	c-0.081,0.074-0.198,0.161-0.358,0.263c-2.69,1.691,1.478,6.058,4.768,3.169c0.814-0.828,1.589-1.695,2.317-2.601
	c2.848-3.539,4.958-7.746,5.733-12.117c0.048-0.272,0.106-0.543,0.144-0.815l0.104-0.818l0.194-1.505
	c0.066-0.485,0.12-0.976,0.195-1.462l0.305-1.444l0.152-0.727l0.209-0.711c0.143-0.474,0.272-0.954,0.426-1.428
	c0.356-0.927,0.683-1.876,1.138-2.772c0.125-0.264,0.265-0.522,0.399-0.783h-2.271C18.891,47.226,18.296,48.162,17.938,48.821z" fill="#ff0000"></path><path d="M21.706,48.239l-0.269,0.79l-0.134,0.397l-0.104,0.401l-0.418,1.62c-0.119,0.545-0.201,1.094-0.303,1.646
	l-0.144,0.83l-0.083,0.831l-0.158,1.676c-0.021,0.557-0.022,1.113-0.032,1.674l-0.011,0.844l-0.002,0.211l-0.004,0.193l-0.012,0.339
	l-0.021,0.673c-0.015,0.224-0.039,0.448-0.059,0.67c-0.319,3.564-1.693,6.893-3.663,9.84c-0.487,0.73-1.015,1.438-1.573,2.121
	c-0.108,0.15-0.238,0.308-0.397,0.475c-2.293,2.41,7.246,8.564,9.748,2.744c0.218-0.534,0.425-1.072,0.617-1.616
	c0.403-1.144,0.758-2.303,1.029-3.483c0.149-0.585,0.254-1.185,0.369-1.774c0.052-0.297,0.093-0.598,0.138-0.896
	c0.047-0.297,0.088-0.594,0.115-0.896l0.09-0.896l0.05-0.898c0.043-0.596,0.022-1.196,0.026-1.789
	c-0.04-1.188-0.129-2.366-0.33-3.517c-0.05-0.288-0.095-0.575-0.15-0.859l-0.193-0.847l-0.184-0.777l-0.166-0.679
	c-0.109-0.454-0.232-0.91-0.334-1.37l-0.224-1.394l-0.112-0.704l-0.054-0.707c-0.032-0.473-0.085-0.951-0.103-1.43l0.004-1.441
	v-0.364l0.029-0.36l0.058-0.727c0.08-0.923,0.215-1.851,0.404-2.775h-2.546C22.276,46.743,21.97,47.481,21.706,48.239z" fill="#ff0000"></path><path d="M25.827,49.899l0.022,0.821l0.013,0.413l0.042,0.406l0.173,1.64c0.078,0.543,0.192,1.077,0.291,1.621
	l0.155,0.815l0.213,0.795l0.44,1.599c0.175,0.521,0.37,1.033,0.558,1.553l0.287,0.781l0.072,0.195l0.063,0.179l0.108,0.316
	l0.217,0.627c0.064,0.212,0.119,0.428,0.18,0.639c0.95,3.395,0.814,6.943-0.022,10.35c-0.188,0.765-0.415,1.524-0.672,2.274
	c-0.04,0.372-0.24,0.938-0.672,1.77c-0.002,0.005-0.004,0.009-0.006,0.013c-0.056,0.135-0.112,0.269-0.17,0.401
	c-1.321,4.02,10.253,4.459,10.767-1.576c0.043-0.8,0.063-1.601,0.051-2.401c-0.018-1.194-0.09-2.387-0.246-3.57
	c-0.064-0.591-0.176-1.18-0.273-1.764c-0.055-0.292-0.122-0.583-0.184-0.873c-0.061-0.29-0.126-0.578-0.206-0.865l-0.229-0.856
	l-0.269-0.845c-0.169-0.564-0.4-1.109-0.604-1.657c-0.457-1.081-0.956-2.134-1.553-3.123c-0.148-0.248-0.292-0.497-0.444-0.739
	l-0.482-0.712l-0.448-0.65l-0.397-0.567c-0.264-0.38-0.54-0.757-0.8-1.146l-0.702-1.204l-0.354-0.609l-0.301-0.632
	c-0.197-0.425-0.416-0.847-0.601-1.281l-0.505-1.329l-0.127-0.335l-0.1-0.343l-0.2-0.689c-0.305-1.076-0.534-2.188-0.681-3.324
	h-2.195C25.871,47.296,25.802,48.597,25.827,49.899z" fill="#ff0000"></path><path d="M46.696,68.556c-0.72-2.121-1.681-4.13-2.876-5.95c-1.188-1.826-2.57-3.483-4.09-4.965l-2.234-2.072
	c-0.354-0.334-0.725-0.657-1.067-1.003l-1.001-1.063c-0.697-0.692-1.271-1.474-1.901-2.226c-0.162-0.186-0.298-0.387-0.438-0.586
	l-0.421-0.6c-0.281-0.4-0.604-0.779-0.81-1.224c-0.448-0.969-0.73-1.895-0.891-2.853h-1.92c0.327,1.264,0.762,2.499,1.296,3.686
	c0.189,0.49,0.433,0.947,0.668,1.412l0.354,0.697c0.119,0.233,0.234,0.469,0.373,0.688c0.544,0.882,1.045,1.809,1.667,2.639
	l0.898,1.279c0.311,0.418,0.646,0.811,0.97,1.219l1.884,2.331c2.326,3.026,3.957,6.48,4.61,10.088
	c0.163,0.916,0.363,3.309,0.345,3.628c-0.154,2.771,5.864,3.54,5.685-0.414C47.571,71.651,47.199,70.073,46.696,68.556z" fill="#ff0000"></path><path d="M34.791,27.043c-0.409-1.458-1.586-1.347-2.807-1.694c-1.21-0.344-2.529-0.915-3.364-1.579
	c-1.265-1.302-1.271-3.028-1.204-3.476c0.296-2.015,1.371-1.477,1.974-1.264c0.655,0.232,1.513,0.47,1.918,0.167
	c0.404-0.302,0.405-0.749,0.403-1.114c-0.003-0.366,0.182-0.468,0.314-0.533c0.132-0.064,0.293-0.148,0.24-0.426
	c-0.053-0.278-0.451-0.33-0.451-0.33s0.42-0.13,0.587-0.222s0.25-0.258,0.21-0.418s-0.263-0.288-0.198-0.577
	c0.077-0.344,0.688-0.301,0.896-0.373c0.244-0.084,0.475-0.366,0.4-0.584c-0.073-0.214-0.35-0.57-0.52-0.853
	c-0.102-0.171-0.44-0.793-0.559-1.171c0.217,0.052,0.473,0.047,0.662-0.081c0.01-0.006,0.012-0.012-0.004-0.011
	c-0.25,0.016-0.476-0.003-0.699-0.091c-0.043-0.333,0.342-0.33,0.52-0.714c-0.002,0,0.381-0.802,0.267-1.887
	c-0.041-0.383-0.118-1.201-0.159-1.419c0.128-0.776,0.074-2.052-1.072-3.065c-1.087-0.961-2.975-1.602-4.905-1.606
	C27.083,2.651,26.353,0,22.947,0c-4.266,0-4.606,3.512-4.659,4.746c-0.047,1.07,0.517,3.005,2.162,4.578
	c-0.034,0.201-0.063,0.403-0.087,0.607c-0.134,1.15-0.146,4.474,1.791,6.235c1.938,1.761,0.906,4.577,0.031,5.746
	c-0.105,0.14-0.224,0.282-0.35,0.424c-0.038,0.036-0.072,0.072-0.102,0.11l0,0c-0.351,0.379-0.752,0.751-1.118,1.068
	c-0.577,0.282-1.469,0.417-3.167,0.398c-3.18-0.035-4.305,1.449-5.117,3.888c-0.813,2.438-1.328,7.198-1.756,9.707
	c-0.427,2.51-1.474,10.03-2.187,12.61S6.73,61.391,6.516,62.166c-0.216,0.774-0.75,1.405-1.895,2.889
	c-1.146,1.482-3.173,2.353-4.063,2.803c0.414,0.593,1.096,0.104,1.096,0.104S0.785,68.594,0,69.263
	c0.387,0.215,0.742,0.057,0.979-0.123c-0.131,0.132-0.283,0.289-0.419,0.439c0.516,0.229,1.055-0.297,1.055-0.297l1.855-1.741
	c0,0,1.574-1.674,1.647-1.157s-0.538,1.139-0.966,1.751c-0.428,0.611-0.041,0.956-0.041,0.956s1.188-1.477,2.15-2.501
	c0.964-1.025,1.16-2.298,1.27-3.182c0.108-0.884,0.977-2.969,0.977-2.969s1.6-5.09,2.354-7.847
	c0.756-2.757,2.642-11.692,2.642-11.692l1.773-6.844l1.708,3.451c0,0-0.382-0.927-0.108-2.854c0.335-2.348,4.257-4.415,8.428-4.415
	c2.12,0,5.34,0.58,7.172,2.521c1.591,1.684,0.451,4.266-0.094,5.397c-0.543,1.131-0.938,2.898-1.016,4.701
	c-0.079,1.803,0.317,4.921,1.582,6.724c-0.438-1.309-0.306-6.83,0.931-11.707C35.116,32.997,35.2,28.502,34.791,27.043z" fill="#000000"></path><path d="M19.264,44.233c0,0-0.869-3.889-1.609-6.126c-0.74-2.238-0.237-4.214,1.064-5.173
	c1.52-1.121,7.824-4.099,12.742-0.225c3.214,2.533-0.802,4.787-0.67,11.524C26.282,44.233,19.264,44.233,19.264,44.233z" fill="#ff0000"></path></g>
<g transform="translate(130.2578125 120.63814839838)  scale(0.63888888888889 0.63888888888889)"><text dominant-baseline="auto" alignment-baseline="auto" font-family="Maxwell" font-size="34px" fill="#000000" letter-spacing="0" xml:space="preserve"></text></g>
<g transform="translate(75.78125 76.625000000005)  scale(1 1)"><text dominant-baseline="auto" alignment-baseline="auto" font-family="Maxwell" font-size="62px" fill="#ff0000" letter-spacing="5" xml:space="preserve">Vastrami</text></g>
<g transform="translate(103.171875 94.625) scale(0.88940820407217 0.88940820407215) rotate(0 118.79650115967 7.1657695770265)"><path d="M237.593,5.918h-93.188c-1.063-2.848-5.203-4.229-5.203-4.229c-0.633-0.144-1.212-0.181-1.755-0.138
 c-0.6-0.401-2.53-1.55-4.995-1.55c0,0-2.856-0.13-5.452,2.467l-2.337,2.334c-0.08-0.354-0.204-0.675-0.204-0.675
 c-0.897-2.12-2.997-3.608-5.442-3.608h-0.438c-2.447,0-4.546,1.488-5.442,3.608c0,0-0.124,0.32-0.204,0.675l-2.336-2.334
 c-2.598-2.597-5.453-2.467-5.453-2.467c-2.465,0-4.396,1.149-4.995,1.55c-0.543-0.043-1.122-0.006-1.755,0.138
 c0,0-4.14,1.381-5.203,4.229H0v1.349h92.941c0,0.001,0,0.001,0,0.002c0,0,0,5.842,5.71,5.842c0,0,3.376-0.13,4.673-3.246
 c0,0-2.075,1.559-4.932,1.559c0,0-3.245,0-3.245-3.765c0,0,0.389-2.858,3.894-2.858c0,0,1.298-0.518,3.635,1.82
 c2.337,2.335,3.765,4.024,6.75,6.1c0,0,3.506,3.246,8.827,0.52c0,0-5.582-0.391-7.788-2.986c-2.207-2.595-3.506-3.895-5.452-5.841
 c-1.484-1.482-2.894-2.662-4.743-2.853c0.821-0.27,3.202-0.691,6.821,1.686c0,0,1.945,1.427,4.022,3.896
 c1.925,2.284,3.738,5.571,7.094,6.042c0,0,0.506,0.068,0.943,0.029c3.507-0.344,5.359-3.736,7.33-6.071
 c2.076-2.469,4.024-3.896,4.024-3.896c3.616-2.377,5.998-1.956,6.818-1.686c-1.85,0.191-3.259,1.371-4.742,2.853
 c-1.948,1.946-3.245,3.247-5.453,5.841c-2.207,2.596-7.787,2.986-7.787,2.986c5.321,2.727,8.826-0.52,8.826-0.52
 c2.985-2.075,4.414-3.765,6.749-6.1c2.338-2.338,3.637-1.82,3.637-1.82c3.504,0,3.894,2.858,3.894,2.858
 c0,3.765-3.245,3.765-3.245,3.765c-2.856,0-4.932-1.559-4.932-1.559c1.297,3.116,4.671,3.246,4.671,3.246
 c5.712,0,5.712-5.842,5.712-5.842c0-0.001,0-0.001,0-0.002h92.94V5.918z M118.785,10.67c-2.32,0-4.202-1.88-4.202-4.201
 c0-2.321,1.882-4.201,4.202-4.201c2.322,0,4.203,1.88,4.203,4.201C122.988,8.791,121.107,10.67,118.785,10.67z" fill="#000000"></path></g>
</svg>